<?xml version="1.0" encoding="UTF-8" standalone="no"?>
<!-- Created with Inkscape (http://www.inkscape.org/) -->

<svg
   viewBox="0 0 120 120"
   version="1.1"
   inkscape:version="1.3.2 (091e20e, 2023-11-25, custom)"
   xmlns:inkscape="http://www.inkscape.org/namespaces/inkscape"
   xmlns="http://www.w3.org/2000/svg"
   xmlns:svg="http://www.w3.org/2000/svg">
   <g>
    <path
      d="m 65,0 v 120 h 53 c 1.06097,0 2,-0.99262 2,-2 V 97 c 0,-0.990443 -0.95355,-2 -2,-2 H 92 c -1.016866,0 -2,-0.956694 -2,-2 V 2 C 90,1.0402747 89.013016,0 88,0 Z"
   />
   <path
      d="m 55,0 v 75 c 0,26.97865 -14.180815,45 -45,45 H 2 c -0.9799989,0 -2,-0.97482 -2,-2 V 97 c 0,-0.969962 0.91205808,-2 2,-2 h 8 c 9.952835,0 20,-8.790367 20,-20 V 2 c 0,-0.999557 0.997656,-2 2,-2 z"
   />
  </g>
</svg>
